<?xml version="1.0" encoding="utf-8"?>
<!-- Generator: Adobe Illustrator 16.0.0, SVG Export Plug-In . SVG Version: 6.00 Build 0)  -->
<!DOCTYPE svg PUBLIC "-//W3C//DTD SVG 1.1//EN" "http://www.w3.org/Graphics/SVG/1.1/DTD/svg11.dtd">
<svg version="1.1" id="Layer_1" xmlns="http://www.w3.org/2000/svg" xmlns:xlink="http://www.w3.org/1999/xlink" x="0px" y="0px"
	 width="69px" height="79px" viewBox="0 0 69 79" enable-background="new 0 0 69 79" xml:space="preserve">
<path fill="none" stroke="#FFFFFF" stroke-width="4" stroke-miterlimit="10" d="M23.229,68.184c0,0,1.423,8.816,10.286,8.816
	s11.49-8.713,11.49-8.713"/>
<path fill="none" stroke="#FFFFFF" stroke-width="4" stroke-miterlimit="10" d="M2,63.931c0,0,0-0.104,0-4.462
	c7.333-4.771,11.162-13.07,11.162-27.801c0-16.984,10.91-22.681,16.49-22.681c0-2.49,1.127-6.987,4.52-6.987
	c3.83,0,4.668,4.705,4.668,6.987c5.729,0,17.438,4.866,17.438,22.681c0,14.264,0,22.406,10.723,27.386c0,2.489,0,4.877,0,4.877H2z"
	/>
</svg>
