<?xml version="1.0" standalone="no"?>
<!DOCTYPE svg PUBLIC "-//W3C//DTD SVG 20010904//EN"
 "http://www.w3.org/TR/2001/REC-SVG-20010904/DTD/svg10.dtd">
<svg version="1.0" xmlns="http://www.w3.org/2000/svg"
 width="300.000000pt" height="300.000000pt" viewBox="0 0 300.000000 300.000000"
 preserveAspectRatio="xMidYMid meet">
<metadata>
Created by potrace 1.10, written by Peter Selinger 2001-2011
</metadata>
<g transform="translate(0.000000,300.000000) scale(0.100000,-0.100000)"
fill="#FFFFFF" stroke="none">
<path d="M943 2590 c-55 -12 -92 -31 -129 -72 -50 -52 -67 -96 -72 -179 l-4
-77 -77 -4 c-90 -5 -141 -28 -193 -86 -65 -72 -63 -43 -63 -847 l0 -730 23
-47 c26 -53 77 -102 131 -127 32 -14 113 -16 766 -16 804 0 775 -2 847 63 58
52 81 103 86 193 l4 77 77 4 c90 5 141 28 193 86 65 72 63 43 63 847 l0 730
-23 47 c-13 26 -40 61 -59 79 -77 67 -34 64 -818 66 -390 0 -729 -3 -752 -7z
m1488 -103 c18 -12 44 -38 56 -56 l23 -35 -2 -735 -3 -736 -23 -33 c-32 -45
-75 -64 -154 -70 l-67 -5 -3 629 -3 629 -30 53 c-32 59 -87 103 -150 121 -27
7 -235 11 -647 11 l-608 0 0 53 c1 58 19 119 45 147 46 51 27 50 806 50 l726
0 34 -23z m-1633 -239 c19 -19 14 -28 -18 -28 -28 0 -29 2 -18 20 15 23 20 24
36 8z m1278 -87 c47 -22 80 -59 95 -110 7 -24 9 -268 7 -741 -3 -783 0 -741
-70 -792 l-33 -23 -736 -3 -735 -2 -35 23 c-18 12 -44 38 -56 56 l-23 34 0
724 c0 779 -1 762 50 808 48 43 60 44 795 44 660 1 702 0 741 -18z m173 -1365
c9 -11 8 -18 -4 -30 -22 -22 -25 -20 -25 14 0 32 11 38 29 16z"/>
<path d="M971 1773 c-22 -11 -40 -31 -53 -60 -17 -40 -19 -67 -16 -397 3 -340
4 -356 24 -383 31 -43 89 -68 128 -56 45 14 613 342 641 371 46 45 44 122 -3
168 -44 43 -613 366 -652 371 -21 2 -49 -3 -69 -14z m356 -229 c158 -92 297
-175 307 -185 16 -15 18 -22 9 -41 -14 -29 -581 -358 -617 -358 -15 0 -30 8
-36 19 -6 13 -10 142 -10 353 0 286 2 337 16 356 8 12 21 22 29 22 7 0 143
-75 302 -166z"/>
</g>
</svg>
