<?xml version="1.0" encoding="utf-8"?>
<!-- Generator: Adobe Illustrator 16.0.0, SVG Export Plug-In . SVG Version: 6.00 Build 0)  -->
<!DOCTYPE svg PUBLIC "-//W3C//DTD SVG 1.1//EN" "http://www.w3.org/Graphics/SVG/1.1/DTD/svg11.dtd">
<svg version="1.1" id="Layer_1" xmlns="http://www.w3.org/2000/svg" xmlns:xlink="http://www.w3.org/1999/xlink" x="0px" y="0px"
	 width="69.038px" height="79px" viewBox="0 0 69.038 79" enable-background="new 0 0 69.038 79" xml:space="preserve">
<path fill="none" stroke="#FFFFFF" stroke-width="4" stroke-miterlimit="10" d="M53.618,69.701c0,4.031-3.699,7.299-8.26,7.299
	h-35.1C5.698,77,2,73.732,2,69.701V20.432c0-4.031,3.698-7.299,8.259-7.299h35.1c4.561,0,8.26,3.268,8.26,7.299V69.701z"/>
<path fill="none" stroke="#FFFFFF" stroke-width="4" stroke-miterlimit="10" d="M15.42,12.834V9.299C15.42,5.268,19.119,2,23.679,2
	h35.1c4.562,0,8.259,3.268,8.259,7.299v49.269c0,4.031-3.697,7.299-8.259,7.299h-6.71"/>
<path fill="none" stroke="#FFFFFF" stroke-width="4" stroke-miterlimit="10" d="M35.325,41.936
	c-1.162-0.935-5.213-2.906-5.213-2.906s-3.433-1.995-4.622-2.576c-0.517-0.252-1.107-0.356-1.72-0.356
	c-2.176,0-4.181,1.508-4.4,3.586c-0.141,1.337,0.009,5.376,0.009,5.376s-0.136,4.105,0.01,5.463c0.223,2.08,2.226,3.586,4.4,3.585
	c0.446,0,0.882-0.039,1.274-0.204c1.339-0.564,5.071-2.85,5.071-2.85s3.345-1.801,4.414-2.48c1.195-0.758,1.912-2.159,1.913-3.684
	C36.461,43.75,36.147,42.597,35.325,41.936z"/>
</svg>
