<?xml version="1.0" encoding="utf-8"?>
<!-- Generator: Adobe Illustrator 16.0.0, SVG Export Plug-In . SVG Version: 6.00 Build 0)  -->
<!DOCTYPE svg PUBLIC "-//W3C//DTD SVG 1.1//EN" "http://www.w3.org/Graphics/SVG/1.1/DTD/svg11.dtd">
<svg version="1.1" id="Layer_1" xmlns="http://www.w3.org/2000/svg" xmlns:xlink="http://www.w3.org/1999/xlink" x="0px" y="0px"
	 width="67.5px" height="71.283px" viewBox="0 0 67.5 71.283" enable-background="new 0 0 67.5 71.283" xml:space="preserve">
<g>
	<path fill="none" stroke="#FFFFFF" stroke-width="4" stroke-miterlimit="10" d="M65.5,18.977C65.49,9.588,55.761,1.987,43.768,2
		C31.776,2.013,22.062,9.633,22.072,19.021c0.003,2.8,0.875,5.438,2.409,7.766c8.08,0.22,15.034,3.895,18.532,9.197
		c0.263,0.006,0.525,0.015,0.791,0.014c1.227,0,2.431-0.084,3.603-0.238l11.425,5.049l-0.804-8.992
		C62.607,28.695,65.505,24.102,65.5,18.977z"/>
	<path fill="none" stroke="#FFFFFF" stroke-width="4" stroke-miterlimit="10" d="M24.481,26.787
		c-0.255-0.008-0.51-0.016-0.768-0.016C11.722,26.771,2,34.383,2,43.771c0,5.124,2.902,9.715,7.484,12.831L9.332,67.559
		l10.778-7.023c1.173,0.153,2.376,0.234,3.604,0.234c11.991,0,21.714-7.609,21.714-16.998c0-2.809-0.875-5.454-2.414-7.787
		C39.516,30.682,32.561,27.007,24.481,26.787z"/>
</g>
</svg>
