<?xml version="1.0" encoding="utf-8"?>
<!-- Generator: Adobe Illustrator 16.0.0, SVG Export Plug-In . SVG Version: 6.00 Build 0)  -->
<!DOCTYPE svg PUBLIC "-//W3C//DTD SVG 1.1//EN" "http://www.w3.org/Graphics/SVG/1.1/DTD/svg11.dtd">
<svg version="1.1" id="Layer_1" xmlns="http://www.w3.org/2000/svg" xmlns:xlink="http://www.w3.org/1999/xlink" x="0px" y="0px"
	 width="69px" height="69px" viewBox="0 0 69 69" enable-background="new 0 0 69 69" xml:space="preserve">
<path fill="none" stroke="#FFFFFF" stroke-width="4" stroke-miterlimit="10" d="M34.5,67c0,0,16.251,0,24.375,0
	C67,67,67,58.459,67,58.459s0-18.148,0-26.57c0-5.733-2.407-10.122-5.981-12.93c-8.08-6.349-15.148-11.98-18.506-14.708
	c-3.357-2.729-12.046-3.262-16.25,0c-4.204,3.262-12.751,9.312-18.394,14.471C3.173,23.017,2,27.619,2,31.889
	c0,6.88,0,18.267,0,26.57C2,61.438,2.301,67,9.9,67C18.814,67,34.5,67,34.5,67z"/>
<path fill="#FFFFFF" d="M52.556,58.539c0,1.048-0.646,1.898-1.444,1.898H17.889c-0.797,0-1.444-0.851-1.444-1.898l0,0
	c0-1.049,0.647-1.898,1.444-1.898h33.222C51.909,56.641,52.556,57.49,52.556,58.539L52.556,58.539z"/>
</svg>
