<?xml version="1.0" encoding="utf-8"?>
<!-- Generator: Adobe Illustrator 16.0.0, SVG Export Plug-In . SVG Version: 6.00 Build 0)  -->
<!DOCTYPE svg PUBLIC "-//W3C//DTD SVG 1.1//EN" "http://www.w3.org/Graphics/SVG/1.1/DTD/svg11.dtd">
<svg version="1.1" id="Layer_1" xmlns="http://www.w3.org/2000/svg" xmlns:xlink="http://www.w3.org/1999/xlink" x="0px" y="0px"
	 width="69px" height="75.551px" viewBox="0 0 69 75.551" enable-background="new 0 0 69 75.551" xml:space="preserve">
<path fill="#FFFFFF" stroke="#FFFFFF" stroke-miterlimit="10" d="M31.458,55.271c-0.871,0.546-1.013,1.887-0.317,2.993l10.07,16.03
	c0.694,1.106,1.964,1.56,2.834,1.014l0,0c0.871-0.546,1.012-1.888,0.316-2.993l-10.07-16.031
	C33.597,55.178,32.328,54.724,31.458,55.271L31.458,55.271z"/>
<circle fill="none" stroke="#FFFFFF" stroke-width="4" stroke-miterlimit="10" cx="13.507" cy="16.214" r="7.615"/>
<circle fill="none" stroke="#FFFFFF" stroke-width="4" stroke-miterlimit="10" cx="34.912" cy="12.914" r="10.914"/>
<path fill="none" stroke="#FFFFFF" stroke-width="4" stroke-miterlimit="10" d="M52.764,51.041c0,2.803-2.271,5.076-5.076,5.076
	H7.076C4.272,56.117,2,53.844,2,51.041V30.735c0-2.804,2.272-5.076,5.076-5.076h40.612c2.805,0,5.076,2.272,5.076,5.076V51.041z"/>
<path fill="none" stroke="#FFFFFF" stroke-width="4" stroke-miterlimit="10" d="M52.956,33.02c0,0,7.699-4.273,9.982-5.584
	C64.631,27.012,67,28.262,67,29.55c0,2.437,0,11.338,0,11.338s0,8.9,0,11.336c0,1.289-2.369,2.539-4.063,2.116
	c-2.283-1.312-9.982-5.585-9.982-5.585"/>
<path fill="none" stroke="#FFFFFF" stroke-width="4" stroke-miterlimit="10" d="M27.049,56.055"/>
<path fill="#FFFFFF" stroke="#FFFFFF" stroke-miterlimit="10" d="M23.782,55.271c0.871,0.546,1.015,1.886,0.32,2.993L14.049,74.305
	c-0.694,1.105-1.963,1.562-2.833,1.016l0,0c-0.871-0.545-1.014-1.886-0.32-2.992l10.053-16.041
	C21.643,55.18,22.911,54.725,23.782,55.271L23.782,55.271z"/>
</svg>
